Coordinates
version=1
nRows=27
nColumns=12
inDegrees=yes

Units are S.I. units (second, meters, Newtons, ...)
Angles are in degrees

endheader
time	SC_y	SC_z	SC_x	AC_y	AC_z	AC_x	GH_y	GH_z	GH_yy	EL_x	PS_y
       0.0              -38.14         -2.242          3.959          50.88          7.747         -14.86         -75.89          73.78         -38.19          102.7          106.2
   0.04814              -38.14         -2.237          3.969          50.88          7.743         -14.85         -75.89          73.78         -38.18          102.7          106.2
   0.09628              -38.14         -2.231           3.98          50.88          7.739         -14.85         -75.88          73.78         -38.16          102.7          106.2
    0.1444              -38.15         -2.226          3.992          50.88          7.735         -14.84         -75.88          73.78         -38.14          102.7          106.2
    0.1926              -38.15         -2.219          4.005          50.88           7.73         -14.83         -75.87          73.78         -38.12          102.7          106.1
    0.2407              -38.15         -2.213          4.018          50.88          7.725         -14.83         -75.87          73.78          -38.1          102.7          106.1
    0.2889              -38.16         -2.205          4.033          50.88           7.72         -14.82         -75.86          73.78         -38.08          102.7          106.1
     0.337              -38.16         -2.198          4.048          50.88          7.715         -14.81         -75.86          73.78         -38.05          102.7          106.1
    0.3851              -38.17          -2.19          4.065          50.88          7.709         -14.81         -75.85          73.78         -38.03          102.7          106.1
    0.4333              -38.17         -2.181          4.083          50.88          7.702          -14.8         -75.84          73.78          -38.0          102.7          106.1
    0.4814              -38.17         -2.171          4.102          50.88          7.695         -14.79         -75.84          73.78         -37.97          102.7          106.0
    0.5296              -38.18         -2.161          4.122          50.88          7.688         -14.78         -75.83          73.78         -37.94          102.7          106.0
    0.5777              -38.19          -2.15          4.144          50.88           7.68         -14.77         -75.82          73.78         -37.91          102.7          106.0
    0.6258              -38.19         -2.138          4.168          50.88          7.671         -14.76         -75.81          73.78         -37.87          102.8          106.0
     0.674               -38.2         -2.126          4.194          50.88          7.662         -14.75          -75.8          73.77         -37.83          102.8          105.9
    0.7221               -38.2         -2.112          4.222          50.88          7.652         -14.73         -75.79          73.77         -37.79          102.8          105.9
    0.7703              -38.21         -2.097          4.252          50.88          7.641         -14.72         -75.77          73.77         -37.74          102.8          105.9
    0.8184              -38.22          -2.08          4.285          50.89          7.629          -14.7         -75.76          73.77         -37.69          102.8          105.9
    0.8666              -38.23         -2.062          4.322          50.89          7.616         -14.69         -75.75          73.77         -37.63          102.8          105.8
    0.9147              -38.24         -2.043          4.361          50.89          7.602         -14.67         -75.73          73.77         -37.57          102.9          105.8
    0.9628              -38.25         -2.021          4.405          50.89          7.586         -14.65         -75.71          73.77          -37.5          102.9          105.7
     1.011              -38.26         -1.997          4.453          50.89          7.569         -14.62         -75.69          73.77         -37.43          102.9          105.7
     1.059              -38.28         -1.971          4.506          50.89          7.549          -14.6         -75.67          73.76         -37.35          102.9          105.6
     1.107              -38.29         -1.942          4.564          50.89          7.528         -14.57         -75.65          73.76         -37.26          103.0          105.6
     1.155              -38.31          -1.91          4.629          50.89          7.505         -14.54         -75.62          73.76         -37.16          103.0          105.5
     1.204              -38.33         -1.874          4.702           50.9          7.478         -14.51         -75.59          73.76         -37.05          103.0          105.4
     1.252              -38.35         -1.833          4.783           50.9          7.449         -14.47         -75.56          73.75         -36.92          103.1          105.3
